<?xml version="1.0" standalone="no"?>
<!DOCTYPE svg PUBLIC "-//W3C//DTD SVG 20010904//EN"
 "http://www.w3.org/TR/2001/REC-SVG-20010904/DTD/svg10.dtd">
<svg version="1.0" xmlns="http://www.w3.org/2000/svg"
 width="3100.000000pt" height="3100.000000pt" viewBox="0 0 3100.000000 3100.000000"
 preserveAspectRatio="xMidYMid meet">
<metadata>
Created by potrace 1.14, written by Peter Selinger 2001-2017
</metadata>
<g transform="translate(0.000000,3100.000000) scale(0.100000,-0.100000)"
fill="#000000" stroke="none">
<path d="M0 15500 l0 -15500 15500 0 15500 0 0 15500 0 15500 -15500 0 -15500
0 0 -15500z m16775 12860 c1000 -1019 8614 -8782 11000 -11215 1171 -1194
1347 -1375 1343 -1384 -1 -5 -203 -213 -448 -462 -245 -250 -787 -803 -1205
-1229 -419 -426 -2855 -2910 -5415 -5520 -6541 -6668 -6544 -6670 -6552 -6668
-4 2 -175 174 -380 383 -5665 5772 -12021 12254 -12122 12362 l-58 62 21 34
c18 30 19 36 6 41 -8 3 -12 12 -9 21 3 8 1 15 -5 15 -7 0 -7 7 1 25 12 26 28
33 28 13 1 -7 8 -1 16 15 8 15 20 27 26 27 6 0 8 3 5 7 -4 3 -2 12 4 20 9 10
7 13 -6 13 -14 0 -15 3 -5 15 10 12 9 15 -6 15 -17 1 -16 3 6 22 15 13 20 23
13 25 -7 2 -9 11 -6 19 3 8 0 14 -6 14 -8 0 -7 7 3 21 8 12 12 28 9 35 -4 10
0 12 11 8 9 -3 16 -1 16 5 0 19 2 26 13 46 6 11 12 26 13 33 3 20 25 42 40 42
8 0 13 6 11 13 -1 6 3 12 10 12 15 0 166 -153 5993 -6095 2791 -2846 5363
-5469 5715 -5828 352 -359 645 -651 652 -650 6 2 506 507 1110 1123 2857 2914
10319 10523 10983 11199 410 417 745 762 745 766 0 4 -347 360 -770 791 -940
957 -1508 1536 -5440 5544 -6043 6161 -6626 6755 -6630 6755 -5 0 -2048 -2081
-8309 -8465 -4229 -4311 -4442 -4526 -4472 -4519 -22 6 -24 3 -24 -26 0 -25
-3 -31 -16 -26 -9 3 -25 6 -37 6 -20 0 -20 0 2 24 l22 23 -68 6 c-37 4 -97 7
-132 7 l-64 0 19 21 19 22 -101 -6 c-114 -8 -228 -28 -323 -57 l-64 -19 40 42
c145 153 1717 1758 4123 4212 5298 5402 8386 8551 8880 9056 272 279 497 506
500 505 3 0 577 -584 1275 -1296z m-1015 -5585 c482 -20 943 -179 1263 -434
l58 -46 -35 -30 c-28 -25 -32 -34 -24 -49 13 -24 9 -22 -94 47 -47 31 -90 57
-94 57 -5 0 9 -12 31 -27 123 -82 297 -257 392 -393 184 -263 323 -662 340
-972 7 -127 -7 -212 -46 -283 -23 -40 -30 -70 -37 -150 -5 -55 -8 -110 -7
-122 2 -21 -2 -23 -55 -23 -38 0 -67 6 -87 18 -16 11 -106 94 -200 186 -240
236 -361 330 -540 416 -224 109 -538 170 -799 157 -120 -6 -334 -43 -411 -70
-22 -8 -58 -17 -80 -21 -39 -6 -39 -6 -15 8 14 9 32 15 41 16 23 0 62 37 54
51 -6 8 -10 8 -16 -2 -6 -11 -9 -10 -15 4 -3 9 -1 24 6 32 9 11 10 15 1 15 -8
0 -10 8 -6 20 5 14 2 20 -9 20 -18 0 -22 25 -6 35 17 10 11 25 -12 34 -26 10
-29 8 77 45 102 36 57 31 -86 -8 -144 -40 -333 -119 -491 -206 -663 -365
-1241 -1063 -1392 -1680 -125 -515 -115 -949 29 -1266 89 -195 276 -383 486
-490 59 -30 80 -25 22 5 -54 29 -73 46 -73 64 0 9 -5 19 -10 22 -6 4 -8 16 -4
27 5 16 3 19 -7 12 -12 -6 -12 -5 0 9 7 9 10 17 5 17 -4 0 1 7 12 16 10 8 12
12 4 8 -11 -5 -12 -4 -4 5 9 9 25 4 72 -24 246 -144 594 -249 1077 -324 105
-17 519 -71 920 -121 2158 -268 2164 -268 2386 -314 263 -55 242 -50 419 -98
407 -110 736 -240 1006 -399 126 -74 156 -98 152 -123 -3 -18 -12 -22 -58 -27
-52 -5 -61 -3 -159 48 -57 30 -106 52 -108 49 -2 -2 38 -28 89 -57 400 -229
712 -550 903 -929 131 -261 202 -536 212 -828 12 -334 -53 -633 -202 -932 -96
-193 -179 -307 -339 -464 -298 -292 -735 -598 -1221 -853 -110 -58 -204 -109
-210 -113 -5 -4 -66 -32 -135 -63 -69 -31 -186 -83 -260 -117 -74 -34 -189
-87 -255 -117 -66 -30 -255 -108 -420 -174 -165 -66 -343 -137 -395 -159 -52
-21 -635 -255 -1295 -519 -1225 -490 -1335 -538 -1590 -692 -348 -210 -587
-448 -720 -717 -59 -119 -74 -177 -81 -307 -6 -106 -5 -115 36 -268 22 -87 40
-173 38 -192 l-3 -34 -41 32 c-83 64 -234 275 -309 432 -141 291 -170 620 -86
956 21 82 78 235 117 311 13 26 22 48 20 48 -2 0 -20 -24 -40 -54 -36 -54 -59
-72 -78 -59 -6 3 -8 1 -5 -4 7 -11 -24 -36 -60 -47 -24 -8 -24 -2 -2 52 7 17
17 32 21 32 4 0 8 7 8 14 0 31 218 232 325 301 17 11 92 65 166 120 197 148
306 222 474 320 130 76 1017 526 1460 740 83 40 357 175 610 300 253 125 577
285 720 355 1040 510 987 481 1155 630 98 87 195 187 248 256 20 27 44 57 53
67 23 25 125 234 140 285 7 23 16 42 20 42 4 0 10 8 14 18 3 11 18 24 33 31
23 10 25 10 10 -2 -24 -19 -23 -24 12 -30 24 -5 30 -12 30 -32 0 -17 -4 -24
-11 -19 -8 4 -9 -1 -4 -16 5 -16 4 -20 -5 -15 -9 5 -10 2 -5 -14 4 -12 2 -21
-4 -21 -6 0 -11 -7 -11 -15 0 -8 -4 -15 -10 -15 -5 0 -7 -7 -4 -15 4 -8 1 -15
-5 -15 -6 0 -11 -8 -11 -17 0 -10 -18 -38 -40 -63 -22 -25 -40 -49 -40 -54 0
-16 -52 -86 -95 -130 -22 -23 -51 -56 -65 -75 -14 -19 -58 -56 -99 -83 -86
-56 -85 -60 2 -17 184 93 500 325 650 476 194 195 311 382 363 579 115 432
-142 693 -861 872 -218 55 -626 131 -870 162 -132 17 -305 40 -385 50 -142 19
-721 85 -1536 175 -515 57 -500 55 -794 109 -311 57 -502 102 -721 170 -524
163 -863 346 -1225 658 -371 320 -686 788 -846 1258 -129 379 -181 685 -182
1075 -1 225 1 253 32 450 65 411 135 644 312 1031 227 498 342 675 624 962
187 192 553 493 736 607 25 15 81 51 125 80 185 119 407 233 575 295 63 23
209 77 325 120 164 61 241 84 350 104 141 27 386 46 505 40 36 -2 121 -6 190
-9z m-490 -1760 c-14 -8 -29 -14 -35 -14 -5 0 1 6 15 14 14 8 30 14 35 14 6 0
-1 -6 -15 -14z m-3313 -1937 c-3 -8 -6 -5 -6 6 -1 11 2 17 5 13 3 -3 4 -12 1
-19z m2 -100 c-1 -35 -2 -38 -8 -18 -7 23 -4 60 5 60 2 0 4 -19 3 -42z m2 -55
c7 -53 5 -63 -13 -63 -10 0 -18 7 -18 16 0 10 5 14 15 10 13 -4 13 -2 5 14 -5
10 -10 21 -10 24 0 9 20 7 21 -1z m-8841 -3683 c0 -5 -7 -10 -16 -10 -8 0 -12
5 -9 10 3 6 10 10 16 10 5 0 9 -4 9 -10z m-118 -352 c-7 -7 -12 -8 -12 -2 0
14 12 26 19 19 2 -3 -1 -11 -7 -17z m15793 -738 c3 -5 1 -10 -4 -10 -6 0 -11
5 -11 10 0 6 2 10 4 10 3 0 8 -4 11 -10z"/>
<path d="M14050 17636 c0 -2 7 -7 16 -10 8 -3 12 -2 9 4 -6 10 -25 14 -25 6z"/>
<path d="M19170 13848 c-69 -67 -109 -109 -90 -93 57 44 232 216 219 215 -2
-1 -60 -55 -129 -122z"/>
<path d="M18969 13679 c-35 -28 -114 -87 -176 -131 -62 -44 -113 -81 -113 -84
0 -10 210 133 281 192 71 59 86 74 76 74 -2 0 -32 -23 -68 -51z"/>
<path d="M13757 9024 c6 -15 23 -19 23 -5 0 5 -7 11 -14 14 -10 4 -13 1 -9 -9z"/>
</g>
</svg>
